<?xml version="1.0" encoding="utf-8"?>
<!-- Generator: Adobe Illustrator 27.7.0, SVG Export Plug-In . SVG Version: 6.00 Build 0)  -->
<svg version="1.1" id="Layer_1" xmlns="http://www.w3.org/2000/svg" xmlns:xlink="http://www.w3.org/1999/xlink" x="0px" y="0px"
	 viewBox="0 0 277 312.4" style="enable-background:new 0 0 277 312.4;" xml:space="preserve">
<style type="text/css">
	.st0{fill:url(#SVGID_1_);}
	.st1{fill:url(#SVGID_00000095298981067474320030000001553212230977699756_);}
	.st2{fill:none;stroke:#E2887F;stroke-miterlimit:10;}
	.st3{fill:url(#SVGID_00000017488232545397419490000005234045642709032067_);}
	.st4{fill:url(#SVGID_00000015321605307381142060000006323119483472730813_);}
	.st5{fill:url(#SVGID_00000154418984036562708470000003516340140036992404_);}
	.st6{enable-background:new    ;}
	.st7{fill:#383839;}
	.st8{clip-path:url(#SVGID_00000142866369131841045610000007147770287809126330_);fill:#383839;}
	.st9{clip-path:url(#SVGID_00000022552641211016277210000008077647491662836414_);fill:#141414;}
	.st10{fill:#232323;}
	
		.st11{clip-path:url(#SVGID_00000022540472680226494050000002293910996520996008_);fill:url(#SVGID_00000173132396384997273390000008015057218400672416_);}
	.st12{fill:#F2F2F2;}
	.st13{fill:#DBDBDB;}
	.st14{fill:#49474C;}
	.st15{fill:#BEBEBE;}
	.st16{fill:#57575A;}
	.st17{opacity:0.38;}
</style>
<linearGradient id="SVGID_1_" gradientUnits="userSpaceOnUse" x1="3352.8857" y1="-3140.8203" x2="3495.4158" y2="-3140.8203" gradientTransform="matrix(0.87 0.5 1 -0.58 271.8344 -3323.2202)">
	<stop  offset="3.000000e-02" style="stop-color:#E26558"/>
	<stop  offset="0.21" style="stop-color:#E0341B"/>
	<stop  offset="1" style="stop-color:#BA210F"/>
</linearGradient>
<path class="st0" d="M51.5,177.1c0-0.1,0-0.2,0-0.4C51.5,176.8,51.5,177,51.5,177.1z"/>
<linearGradient id="SVGID_00000041257335804567739770000004801043886304726699_" gradientUnits="userSpaceOnUse" x1="3352.8857" y1="-3054.7283" x2="3495.4158" y2="-3054.7283" gradientTransform="matrix(0.87 0.5 1 -0.58 271.8344 -3323.2202)">
	<stop  offset="3.000000e-02" style="stop-color:#E26558"/>
	<stop  offset="0.21" style="stop-color:#E0341B"/>
	<stop  offset="1" style="stop-color:#BA210F"/>
</linearGradient>
<path style="fill:url(#SVGID_00000041257335804567739770000004801043886304726699_);" d="M225.5,177.3c0,0.1,0,0.2,0,0.4
	C225.5,177.6,225.5,177.4,225.5,177.3z"/>
<path class="st2" d="M3.7,78.3c16.2-28,89.7-15.9,164.1,27.1S289.5,206,273.3,234"/>
<path class="st2" d="M3.7,234c-16.2-28,31-85.6,105.5-128.6s148-55.1,164.1-27.1"/>
<path class="st2" d="M273.3,78.3c16.2,28-31,85.6-105.5,128.6S19.9,262.1,3.7,234"/>
<path class="st2" d="M28.4,266.3C5.5,243.4,36.2,175.5,97,114.7s128.7-91.5,151.6-68.6"/>
<path class="st2" d="M248.6,46.1c22.9,22.9-7.8,90.7-68.6,151.5S51.3,289.2,28.4,266.3"/>
<path class="st2" d="M60.7,291c-28-16.2-15.9-89.7,27.1-164.1S188.3,5.2,216.3,21.4"/>
<path class="st2" d="M216.3,21.4c28,16.2,15.9,89.7-27.1,164.1S88.7,307.2,60.7,291"/>
<path class="st2" d="M98.2,306.6c-31.3-8.4-38.6-82.5-16.3-165.6S147.5-2.6,178.8,5.8"/>
<path class="st2" d="M178.8,5.8c31.3,8.4,38.6,82.5,16.3,165.6s-65.6,143.6-96.9,135.2"/>
<path class="st2" d="M138.5,311.9c-32.4,0-58.6-69.7-58.6-155.7S106.1,0.5,138.5,0.5"/>
<path class="st2" d="M138.5,0.5c32.4,0,58.6,69.7,58.6,155.7s-26.2,155.7-58.6,155.7"/>
<linearGradient id="SVGID_00000124147979850955460380000001650587570496281732_" gradientUnits="userSpaceOnUse" x1="3334.9756" y1="-3125.3101" x2="3477.5056" y2="-3125.3101" gradientTransform="matrix(0.87 0.5 1 -0.58 271.8344 -3323.2202)">
	<stop  offset="3.000000e-02" style="stop-color:#E26558"/>
	<stop  offset="0.21" style="stop-color:#E0341B"/>
	<stop  offset="1" style="stop-color:#BA210F"/>
</linearGradient>
<path style="fill:url(#SVGID_00000124147979850955460380000001650587570496281732_);" d="M51.5,159.2c0-0.1,0-0.2,0-0.4
	C51.5,158.9,51.5,159,51.5,159.2z"/>
<linearGradient id="SVGID_00000038376457554127502160000004123585332224768419_" gradientUnits="userSpaceOnUse" x1="3334.9756" y1="-3039.218" x2="3477.5056" y2="-3039.218" gradientTransform="matrix(0.87 0.5 1 -0.58 271.8344 -3323.2202)">
	<stop  offset="3.000000e-02" style="stop-color:#E26558"/>
	<stop  offset="0.21" style="stop-color:#E0341B"/>
	<stop  offset="1" style="stop-color:#BA210F"/>
</linearGradient>
<path style="fill:url(#SVGID_00000038376457554127502160000004123585332224768419_);" d="M225.5,159.4c0,0.1,0,0.2,0,0.4
	C225.5,159.6,225.5,159.5,225.5,159.4z"/>
<linearGradient id="SVGID_00000169523582633663047480000015958150126342951344_" gradientUnits="userSpaceOnUse" x1="6.96" y1="246.2356" x2="28.42" y2="246.2356" gradientTransform="matrix(1 0 0 -1 0 313.2756)">
	<stop  offset="3.000000e-02" style="stop-color:#E26558"/>
	<stop  offset="0.21" style="stop-color:#E0341B"/>
	<stop  offset="1" style="stop-color:#BA210F"/>
</linearGradient>
<circle style="fill:url(#SVGID_00000169523582633663047480000015958150126342951344_);" cx="17.7" cy="67" r="10.7"/>
<g>
	<g class="st6">
		<path class="st7" d="M71.5,129.3c22.6-39.4,67.1-56.4,99.4-37.9l14.2,8.2c-32.3-18.5-76.8-1.5-99.4,37.9
			c-22.6,39.3-14.8,86,17.5,104.7L89,234C56.7,215.4,48.9,168.6,71.5,129.3z"/>
	</g>
	<path class="st7" d="M71.5,129.3c9.8-17.1,23.7-30,39-37.5c0,0,0,0,0,0c0.1,0,0.1-0.1,0.2-0.1c0.4-0.2,0.8-0.4,1.2-0.6
		c0.2-0.1,0.4-0.2,0.5-0.3c0.6-0.3,1.2-0.5,1.8-0.8c0.1,0,0.2-0.1,0.3-0.1c0.5-0.2,1-0.4,1.5-0.6c0.2-0.1,0.4-0.2,0.6-0.2
		c0.4-0.2,0.8-0.3,1.2-0.5c0.2-0.1,0.5-0.2,0.7-0.3c0.4-0.1,0.7-0.3,1.1-0.4c0.2-0.1,0.5-0.2,0.7-0.3c0.4-0.1,0.7-0.2,1.1-0.4
		c0.2-0.1,0.5-0.2,0.7-0.2c0.4-0.1,0.7-0.2,1.1-0.3c0.2-0.1,0.5-0.1,0.7-0.2c0.4-0.1,0.8-0.2,1.2-0.3c0.2-0.1,0.4-0.1,0.7-0.2
		c0.5-0.1,1-0.2,1.5-0.4c0.1,0,0.2-0.1,0.4-0.1c0.6-0.1,1.2-0.3,1.8-0.4c0.2,0,0.3-0.1,0.5-0.1c0.4-0.1,0.9-0.2,1.3-0.2
		c0.2,0,0.5-0.1,0.7-0.1c0.4-0.1,0.8-0.1,1.2-0.2c0.2,0,0.5-0.1,0.7-0.1c0.4,0,0.7-0.1,1.1-0.1c0.3,0,0.5-0.1,0.8-0.1
		c0.4,0,0.7-0.1,1.1-0.1c0.2,0,0.5,0,0.7-0.1c0.4,0,0.8,0,1.1-0.1c0.2,0,0.5,0,0.7,0c0.4,0,0.8,0,1.3,0c0.2,0,0.4,0,0.6,0
		c0.6,0,1.2,0,1.8,0c0.1,0,0.1,0,0.2,0c0.6,0,1.1,0,1.7,0.1c0.2,0,0.4,0,0.6,0c0.4,0,0.8,0,1.2,0.1c0.2,0,0.5,0,0.7,0.1
		c0.4,0,0.7,0.1,1.1,0.1c0.2,0,0.5,0.1,0.7,0.1c0.4,0,0.7,0.1,1.1,0.1c0.2,0,0.5,0.1,0.7,0.1c0.4,0.1,0.7,0.1,1.1,0.2
		c0.2,0,0.5,0.1,0.7,0.1c0.4,0.1,0.8,0.1,1.1,0.2c0.2,0,0.4,0.1,0.6,0.1c0.5,0.1,0.9,0.2,1.4,0.3c0.1,0,0.3,0.1,0.4,0.1
		c0.6,0.1,1.2,0.3,1.8,0.5c0.2,0,0.3,0.1,0.4,0.1c0.4,0.1,0.9,0.3,1.3,0.4c0.2,0.1,0.4,0.1,0.6,0.2c0.4,0.1,0.7,0.2,1.1,0.4
		c0.2,0.1,0.5,0.2,0.7,0.3c0.3,0.1,0.7,0.3,1,0.4c0.2,0.1,0.5,0.2,0.7,0.3c0.3,0.1,0.7,0.3,1,0.4c0.2,0.1,0.5,0.2,0.7,0.3
		c0.3,0.2,0.7,0.3,1,0.5c0.2,0.1,0.4,0.2,0.6,0.3c0.4,0.2,0.7,0.4,1.1,0.6c0.2,0.1,0.4,0.2,0.5,0.3c0.5,0.3,1.1,0.6,1.6,0.9
		l14.2,8.2c-0.5-0.3-1.1-0.6-1.6-0.9c-0.2-0.1-0.4-0.2-0.5-0.3c-0.4-0.2-0.7-0.4-1.1-0.6c-0.2-0.1-0.4-0.2-0.6-0.3
		c-0.3-0.2-0.7-0.3-1-0.5c-0.2-0.1-0.5-0.2-0.7-0.3c-0.3-0.1-0.7-0.3-1-0.4c-0.2-0.1-0.5-0.2-0.7-0.3c-0.3-0.1-0.7-0.3-1-0.4
		c-0.2-0.1-0.5-0.2-0.7-0.3c-0.4-0.1-0.7-0.3-1.1-0.4c-0.2-0.1-0.4-0.1-0.6-0.2c-0.4-0.1-0.9-0.3-1.3-0.4c-0.2,0-0.3-0.1-0.5-0.1
		c-0.6-0.2-1.2-0.3-1.8-0.5c-0.1,0-0.3-0.1-0.4-0.1c-0.4-0.1-0.9-0.2-1.4-0.3c-0.2,0-0.4-0.1-0.6-0.1c-0.4-0.1-0.8-0.2-1.1-0.2
		c-0.2,0-0.5-0.1-0.7-0.1c-0.4-0.1-0.7-0.1-1.1-0.2c-0.2,0-0.5-0.1-0.7-0.1c-0.4,0-0.7-0.1-1.1-0.1c-0.2,0-0.5-0.1-0.7-0.1
		c-0.4,0-0.7-0.1-1.1-0.1c-0.2,0-0.5,0-0.7-0.1c-0.4,0-0.8-0.1-1.2-0.1c-0.2,0-0.4,0-0.6,0c-0.5,0-1.1,0-1.6-0.1c-0.1,0-0.1,0-0.2,0
		c-0.6,0-1.2,0-1.8,0c-0.2,0-0.4,0-0.6,0c-0.4,0-0.8,0-1.3,0c-0.2,0-0.5,0-0.7,0c-0.4,0-0.8,0-1.1,0.1c-0.2,0-0.5,0-0.7,0.1
		c-0.4,0-0.7,0.1-1.1,0.1c-0.3,0-0.5,0.1-0.8,0.1c-0.4,0-0.7,0.1-1.1,0.1c-0.2,0-0.5,0.1-0.7,0.1c-0.4,0.1-0.8,0.1-1.2,0.2
		c-0.2,0-0.5,0.1-0.7,0.1c-0.4,0.1-0.9,0.2-1.3,0.2c-0.2,0-0.3,0.1-0.5,0.1c-0.6,0.1-1.2,0.2-1.8,0.4c-0.1,0-0.2,0.1-0.4,0.1
		c-0.5,0.1-1,0.2-1.5,0.4c-0.2,0.1-0.4,0.1-0.7,0.2c-0.4,0.1-0.8,0.2-1.2,0.3c-0.2,0.1-0.5,0.1-0.7,0.2c-0.4,0.1-0.7,0.2-1.1,0.3
		c-0.2,0.1-0.5,0.2-0.7,0.2c-0.4,0.1-0.7,0.2-1.1,0.4c-0.2,0.1-0.5,0.2-0.7,0.3c-0.4,0.1-0.7,0.3-1.1,0.4c-0.2,0.1-0.5,0.2-0.7,0.3
		c-0.4,0.1-0.8,0.3-1.2,0.5c-0.2,0.1-0.4,0.2-0.6,0.2c-0.5,0.2-1,0.4-1.5,0.6c-0.1,0-0.2,0.1-0.3,0.1c-0.6,0.3-1.2,0.5-1.8,0.8
		c-0.2,0.1-0.4,0.2-0.5,0.3c-0.4,0.2-0.8,0.4-1.2,0.6c-15.3,7.6-29.3,20.5-39.2,37.6c-22.6,39.3-14.8,86,17.5,104.7L89,234
		C56.7,215.4,48.9,168.6,71.5,129.3z"/>
	<g class="st6">
		<defs>
			<path id="SVGID_00000137817712999102717750000002655143703341876361_" class="st6" d="M86.3,136.6c-4.7-2.7-9.5-5.5-14.2-8.2
				c-0.2,0.3-0.4,0.6-0.5,0.9C48.9,168.6,56.6,215.3,88.9,234c4.7,2.7,9.5,5.5,14.2,8.2c-32.2-18.7-40-65.4-17.4-104.6
				C85.9,137.2,86.1,136.9,86.3,136.6z"/>
		</defs>
		<clipPath id="SVGID_00000036214867283538085610000011254526299128665004_">
			<use xlink:href="#SVGID_00000137817712999102717750000002655143703341876361_"  style="overflow:visible;"/>
		</clipPath>
		<path style="clip-path:url(#SVGID_00000036214867283538085610000011254526299128665004_);fill:#383839;" d="M71.5,129.3
			c22.6-39.4,67.1-56.4,99.4-37.9l14.2,8.2c-32.3-18.5-76.8-1.5-99.4,37.9c-22.6,39.3-14.8,86,17.5,104.7L89,234
			C56.7,215.4,48.9,168.6,71.5,129.3z"/>
	</g>
	<g class="st6">
		<defs>
			<path id="SVGID_00000029740937362597672050000017207653712810652035_" class="st6" d="M88.8,233.9l14.2,8.2
				c32.5,18.7,77,1.7,99.6-37.7c22.6-39.3,14.8-86.1-17.3-104.6l-14.2-8.2c32.1,18.5,39.9,65.3,17.3,104.6
				C165.8,235.6,121.3,252.6,88.8,233.9z"/>
		</defs>
		<clipPath id="SVGID_00000091704068157347925610000002496285185323980976_">
			<use xlink:href="#SVGID_00000029740937362597672050000017207653712810652035_"  style="overflow:visible;"/>
		</clipPath>
		<path style="clip-path:url(#SVGID_00000091704068157347925610000002496285185323980976_);fill:#141414;" d="M188.4,196.2
			c22.6-39.3,14.8-86.1-17.3-104.6l14.2,8.2c32.1,18.5,39.9,65.3,17.3,104.6c-22.6,39.4-67.1,56.4-99.6,37.7l-14.2-8.2
			C121.3,252.6,165.8,235.6,188.4,196.2z"/>
	</g>
	<g>
		<path class="st10" d="M171.1,91.6c-32.4-18.6-77-1.6-99.6,37.7c-22.6,39.3-14.8,86,17.3,104.6c32.5,18.7,77,1.7,99.6-37.7
			C211,156.9,203.2,110.1,171.1,91.6z"/>
	</g>
	<g class="st6">
		<defs>
			<path id="SVGID_00000166644824212445353750000005319091411587837624_" class="st6" d="M83.7,242.9l14.2,8.2
				c36.5,20.9,86.6,1.9,112-42.4c25.4-44.2,16.7-96.9-19.5-117.8l-14.2-8.2c36.2,20.9,44.9,73.5,19.5,117.8
				C170.3,244.7,120.2,263.8,83.7,242.9z"/>
		</defs>
		<clipPath id="SVGID_00000042712960032257143420000016537914134105460403_">
			<use xlink:href="#SVGID_00000166644824212445353750000005319091411587837624_"  style="overflow:visible;"/>
		</clipPath>
		
			<linearGradient id="SVGID_00000169557606238722172350000003751230631890852266_" gradientUnits="userSpaceOnUse" x1="52.5174" y1="171.1313" x2="193.3224" y2="171.1313" gradientTransform="matrix(-1 0 0 1 277.0011 0)">
			<stop  offset="0" style="stop-color:#030303"/>
			<stop  offset="0.3407" style="stop-color:#565656"/>
			<stop  offset="0.4588" style="stop-color:#4C4C4C"/>
			<stop  offset="0.6516" style="stop-color:#333333"/>
			<stop  offset="0.7625" style="stop-color:#272727"/>
			<stop  offset="0.9636" style="stop-color:#070707"/>
			<stop  offset="1" style="stop-color:#000000"/>
		</linearGradient>
		
			<path style="clip-path:url(#SVGID_00000042712960032257143420000016537914134105460403_);fill:url(#SVGID_00000169557606238722172350000003751230631890852266_);" d="
			M195.7,200.4c25.4-44.2,16.7-96.9-19.5-117.8l14.2,8.2c36.2,20.9,44.9,73.5,19.5,117.8c-25.4,44.3-75.5,63.4-112,42.4l-14.2-8.2
			C120.2,263.8,170.3,244.7,195.7,200.4z"/>
	</g>
	<g>
		<g id="XMLID_538_">
			<g>
				<g class="st6">
					<g>
						<path class="st12" d="M170.3,104.9c-28-16-66.6-1.3-86.2,32.8c-19.6,34.2-12.8,74.8,15.2,90.9c28,16.1,66.6,1.3,86.1-32.8
							C205.1,161.6,198.3,121,170.3,104.9z"/>
					</g>
					<path class="st13" d="M96.6,233.7c8.3,4.8,17.6,7.2,27.2,7.2c7.5,0,15.3-1.5,23.1-4.4c17.6-6.7,32.9-20.2,43.1-38
						c21.1-36.7,13.8-80.8-16.3-98.2c-30.4-17.3-72.3-1.6-93.5,35.2C59.2,172.2,66.5,216.3,96.6,233.7z M187.8,118.9
						C187.8,118.9,187.8,118.9,187.8,118.9L187.8,118.9C187.8,118.9,187.8,118.9,187.8,118.9z M100.2,227.9
						c-27.4-15.7-34.1-55.9-14.8-89.5c14-24.4,37.9-38.7,60.5-38.7c8.5,0,16.8,2,24.3,6.3c13.3,7.6,22.1,21.1,24.9,37.9
						c2.8,16.9-0.8,35.2-10.1,51.5c-10.5,18.4-27.1,31.8-45.4,36.8C125.6,236,111.6,234.5,100.2,227.9z M87.1,130.8L87.1,130.8
						C87,130.8,87,130.8,87.1,130.8C87,130.8,87,130.8,87.1,130.8z M82.6,136.9L82.6,136.9L82.6,136.9L82.6,136.9z M193.6,183.5
						L193.6,183.5L193.6,183.5L193.6,183.5z"/>
				</g>
			</g>
		</g>
		<g>
			<g>
				<polygon class="st14" points="107.4,132.5 103.9,136.5 135.9,170.9 137.2,169.4 139.4,166.9 138.1,165.5 				"/>
			</g>
			<g>
				<polygon class="st14" points="166.9,154.6 138.1,165.5 139.4,166.9 137.2,169.4 137.4,170.9 167.6,159.4 				"/>
			</g>
			<g>
				
					<rect x="157.7" y="117.6" transform="matrix(0.5 -0.866 0.866 0.5 -20.5468 202.6167)" class="st15" width="14.9" height="2.9"/>
			</g>
			<g>
				<polygon class="st15" points="111.1,210.3 103.7,223.2 106.3,224.7 113.7,211.7 				"/>
			</g>
			<g>
				<polygon class="st15" points="102.9,146.7 92.2,140.6 90.4,143.7 101.1,149.8 				"/>
			</g>
			<g>
				<polygon class="st15" points="172.9,186.8 171.1,189.9 181.7,196 183.5,192.9 				"/>
			</g>
			<g>
				<polygon class="st15" points="94.6,182.7 81.8,187.6 82.3,190.8 95.1,185.9 				"/>
			</g>
			<g>
				<polygon class="st15" points="191.5,145.8 178.8,150.7 179.3,153.9 192.1,149 				"/>
			</g>
			<g>
				<polygon class="st15" points="145.9,212.1 142.9,213.2 145.1,226.7 148.2,225.5 				"/>
			</g>
			<g>
				<polygon class="st15" points="128.9,109.9 125.8,111 128,124.5 131.1,123.3 				"/>
			</g>
			<g>
				<polygon class="st15" points="151.1,107 148.1,106.8 145.1,121.1 148.2,121.3 				"/>
			</g>
			<g>
				<polygon class="st15" points="128.7,215.5 125.7,215.3 122.8,229.6 125.9,229.8 				"/>
			</g>
			<g>
				<polygon class="st15" points="108.9,121.2 106.2,123.6 113,134.2 115.7,131.9 				"/>
			</g>
			<g>
				<polygon class="st15" points="160.9,202.3 158.2,204.6 165.1,215.3 167.7,213 				"/>
			</g>
			<g>
				<polygon class="st15" points="99.8,198.4 88.8,208 90.5,210.5 101.5,201 				"/>
			</g>
			<g>
				<polygon class="st15" points="183.5,126 172.4,135.6 174.1,138.1 185.1,128.6 				"/>
			</g>
			<g>
				<polygon class="st15" points="95.7,163.9 83.1,163.1 82.3,166.6 95,167.3 				"/>
			</g>
			<g>
				<polygon class="st15" points="191.6,170.1 178.9,169.2 178.2,172.7 190.9,173.5 				"/>
			</g>
		</g>
		<g id="XMLID_501_">
			<path class="st14" d="M141.3,160.4c-2.9-1.7-6.8-0.2-8.9,3.4c-2,3.5-1.3,7.7,1.5,9.3c2.9,1.7,6.9,0.1,8.9-3.4
				C144.9,166.3,144.1,162,141.3,160.4z"/>
		</g>
	</g>
	<path class="st16" d="M83.7,242.9c36.5,20.9,86.6,1.9,112-42.4c25.4-44.2,16.7-96.9-19.5-117.8c-36.5-20.9-86.6-1.9-112,42.4
		C38.8,169.3,47.5,222,83.7,242.9z M71.5,129.3c22.6-39.4,67.1-56.4,99.4-37.9c32.3,18.7,40.1,65.5,17.5,104.7
		c-22.6,39.4-67.1,56.4-99.4,37.8C56.7,215.4,48.9,168.6,71.5,129.3z"/>
	<g class="st17">
		
			<image style="overflow:visible;" width="148" height="163" xlink:href="AE327C70F4066F5F.png"  transform="matrix(1 0 0 1 56 81.36)">
		</image>
	</g>
</g>
<path class="st2" d="M273.3,234c-16.2,28-89.7,15.9-164.1-27.1S-12.5,106.4,3.7,78.3"/>
</svg>
